# xmcd CD database file
#
# Track frame offsets:
#	182
#	24787
#	52087
#	80672
#	110077
#	141310
#	180575
#	222042
#	258600
#
# Disc length: 3808 seconds
#
# Revision: 0
# Processed by: cddbd v1.5.2PL0 Copyright (c) Steve Scherf et al.
# Submitted via: CDex 1.70beta2
#
DISCID=800ede09
DTITLE=Bob Rockwell - The Bob Rockwell Trio
DYEAR=1989
DGENRE=Jazz
TTITLE0=One for Amos
TTITLE1=Etoile Noire
TTITLE2=Nothing's Forgotten
TTITLE3=When I Fall In Love
TTITLE4=Bird Feathers
TTITLE5=Prisoner Of Love
TTITLE6=Love Walked In
TTITLE7=So In Love
TTITLE8=Blues For Pharoah
EXTD=YEAR: 1989
EXTT0=
EXTT1=
EXTT2=
EXTT3=
EXTT4=
EXTT5=
EXTT6=
EXTT7=
EXTT8=
PLAYORDER=
